# xmcd
#
# Track frame offsets:
#	150
#	14161
#	35227
#	49651
#	65009
#	80102
#	99626
#	115869
#	129168
#	145844
#	163544
#	179315
#	195086
#	210465
#	229782
#	251587
#	272502
#	290777
#	307288
#
# Disc length: 4304 seconds
#
# Revision: 0
# Processed by: cddbd v1.5.2PL0 Copyright (c) Steve Scherf et al.
# Submitted via: EasyCDDAExtractor 10.0.3.1
#
DISCID=1b10ce13
DTITLE=Various Artist - HC 2010 - 03
DYEAR=2010
DGENRE=Country
TTITLE0=Jack Ingram - Free
TTITLE1=Jo Dee Messina - That's Good
TTITLE2=Blaine Larsen - Chillin'  [ Single Edit ]
TTITLE3=Travis Rush - You'll Find Your Way
TTITLE4=Cold Water Jane - Bring On The Love
TTITLE5=David Nail - Turning Home   [ Radio Edit ]
TTITLE6=Jessica Harp - A Women Needs   [ Radio Edit ]
TTITLE7=Luke Bryan - Rain Is A Good Thing  [ Album Version ]
TTITLE8=Keke Wyatt - Who Knew ?  [ Radio Edit ]
TTITLE9=Mariah Carey  Feat. Ne-Yo - Angels Cry  [ Remix ]
TTITLE10=Leela James - Tell Me When You Love Me  [ Spoken Intro ]
TTITLE11=Leela James - Tell Me You Love Me
TTITLE12=Mario - Stranded  [ Main ]
TTITLE13=Rippingtons  Feat. Russ Freeman - Modern Art  [ Album Version ]
TTITLE14=Brian Bromberg - The Anticipation  [ Album Version ]
TTITLE15=Chris Standring - Bossa Blue  [ Full Album Version ]
TTITLE16=Michael J. Thomas - City Beat  [ Album Version ]
TTITLE17=Steve Raybine - What You Won't Do For Love
TTITLE18=Steve Raybine - You've Got It All  [ Radio Edit ]
EXTD=
EXTT0=
EXTT1=
EXTT2=
EXTT3=
EXTT4=
EXTT5=
EXTT6=
EXTT7=
EXTT8=
EXTT9=
EXTT10=
EXTT11=
EXTT12=
EXTT13=
EXTT14=
EXTT15=
EXTT16=
EXTT17=
EXTT18=
PLAYORDER=
